<svg width="107" height="63" viewBox="0 0 107 63" fill="none" xmlns="http://www.w3.org/2000/svg">
<rect width="106.47" height="63" rx="9" fill="#3250FE"/>
<path d="M21.4259 46.3082V54.18H18.7799L18.6696 52.4601C17.8317 53.7537 16.4426 54.4005 14.5022 54.4005C13.1792 54.4005 12.0032 54.1139 10.9742 53.5406C9.95989 52.9526 9.16609 52.1 8.59279 50.9828C8.01949 49.8509 7.73284 48.4985 7.73284 46.9256C7.73284 45.3674 8.02684 44.0297 8.61484 42.9125C9.20284 41.7806 10.0407 40.9133 11.1285 40.3106C12.2163 39.7079 13.5026 39.4065 14.9873 39.4065C16.6484 39.4065 17.9861 39.7005 19.0004 40.2885C20.0147 40.8765 20.8158 41.8247 21.4038 43.133L17.8979 44.5221C17.7215 43.8018 17.3907 43.2653 16.9056 42.9125C16.4205 42.5597 15.8178 42.3833 15.0975 42.3833C13.9803 42.3833 13.1204 42.7655 12.5177 43.5299C11.9297 44.2943 11.6357 45.4188 11.6357 46.9035C11.6357 49.9611 12.8264 51.4899 15.2078 51.4899C16.1045 51.4899 16.8248 51.2841 17.3687 50.8725C17.9273 50.4609 18.2066 49.8656 18.2066 49.0865V48.866H14.5904V46.3082H21.4259Z" fill="#F4F4F4"/>
<path d="M35.0232 43.155V54.18H31.6716L31.5613 52.1294C30.8704 53.6435 29.5989 54.4005 27.7467 54.4005C26.5707 54.4005 25.6446 54.0918 24.9684 53.4744C24.3069 52.8423 23.9761 51.8574 23.9761 50.5197V43.155H27.7246V49.5716C27.7246 50.2919 27.8496 50.799 28.0995 51.093C28.3494 51.387 28.7316 51.534 29.2461 51.534C29.8635 51.534 30.3559 51.3282 30.7234 50.9166C31.0909 50.4903 31.2747 49.8509 31.2747 48.9983V43.155H35.0232Z" fill="#F4F4F4"/>
<path d="M39.5901 41.8761C38.8257 41.8761 38.2671 41.7365 37.9143 41.4572C37.5762 41.1632 37.4071 40.7075 37.4071 40.0901C37.4071 39.458 37.5762 39.0023 37.9143 38.723C38.2671 38.429 38.8257 38.282 39.5901 38.282C40.3545 38.282 40.9057 38.429 41.2438 38.723C41.5966 39.0023 41.773 39.458 41.773 40.0901C41.773 40.7075 41.5966 41.1632 41.2438 41.4572C40.9057 41.7365 40.3545 41.8761 39.5901 41.8761ZM41.4643 54.18H37.7158V43.155H41.4643V54.18Z" fill="#F4F4F4"/>
<path d="M55.3121 38.4804V54.18H51.9384L51.8061 52.0853C51.4827 52.8056 51.005 53.3715 50.3729 53.7831C49.7555 54.1947 49.0352 54.4005 48.212 54.4005C46.7861 54.4005 45.6689 53.9007 44.8604 52.9011C44.0666 51.9015 43.6697 50.505 43.6697 48.7116C43.6697 46.8888 44.0739 45.4703 44.8824 44.456C45.6909 43.4417 46.8081 42.9345 48.234 42.9345C49.0131 42.9345 49.682 43.1183 50.2406 43.4858C50.7992 43.8533 51.2402 44.3604 51.5636 45.0072V38.4804H55.3121ZM49.5129 51.6443C50.1156 51.6443 50.5934 51.4311 50.9462 51.0048C51.3137 50.5638 51.5195 49.9317 51.5636 49.1085V48.2265C51.5195 47.418 51.3137 46.7933 50.9462 46.3523C50.5934 45.9113 50.1156 45.6908 49.5129 45.6908C48.8514 45.6908 48.3369 45.9333 47.9694 46.4184C47.6166 46.9035 47.4402 47.6532 47.4402 48.6675C47.4402 49.6818 47.6166 50.4315 47.9694 50.9166C48.3369 51.4017 48.8514 51.6443 49.5129 51.6443Z" fill="#F4F4F4"/>
<path d="M68.7169 48.5132C68.7169 49.013 68.6802 49.4246 68.6067 49.748H61.0876C61.2052 50.4389 61.4551 50.946 61.8373 51.2694C62.2342 51.5928 62.7561 51.7545 63.4029 51.7545C63.9468 51.7545 64.3878 51.6516 64.7259 51.4458C65.0787 51.24 65.3139 50.9387 65.4315 50.5418L68.4744 51.512C68.1657 52.4528 67.563 53.1731 66.6663 53.6729C65.7843 54.158 64.6965 54.4005 63.4029 54.4005C61.4772 54.4005 59.9998 53.9007 58.9708 52.9011C57.9565 51.9015 57.4494 50.4903 57.4494 48.6675C57.4494 46.8447 57.9492 45.4335 58.9488 44.4339C59.9484 43.4343 61.3669 42.9345 63.2044 42.9345C64.9831 42.9345 66.3429 43.427 67.2837 44.4119C68.2392 45.3821 68.7169 46.7492 68.7169 48.5132ZM63.1824 45.5585C61.9917 45.5585 61.2861 46.2788 61.0656 47.7194H65.211C65.0346 46.2788 64.3584 45.5585 63.1824 45.5585Z" fill="#F4F4F4"/>
<path d="M20.7781 27.904V35.6918H18.1021L17.9906 33.9902C17.1433 35.27 15.7384 35.9099 13.776 35.9099C12.438 35.9099 11.2487 35.6263 10.2081 35.0591C9.18227 34.4774 8.37948 33.6339 7.79969 32.5287C7.2199 31.4089 6.93 30.0709 6.93 28.5148C6.93 26.9733 7.22733 25.6499 7.82199 24.5446C8.41665 23.4248 9.26403 22.5668 10.3642 21.9705C11.4643 21.3742 12.7651 21.0761 14.2666 21.0761C15.9465 21.0761 17.2994 21.367 18.3251 21.9487C19.3509 22.5304 20.1611 23.4684 20.7558 24.7628L17.2102 26.1371C17.0318 25.4245 16.6973 24.8936 16.2067 24.5446C15.7161 24.1956 15.1066 24.0211 14.3781 24.0211C13.2482 24.0211 12.3786 24.3992 11.769 25.1554C11.1744 25.9116 10.877 27.0242 10.877 28.493C10.877 31.5179 12.0812 33.0304 14.4896 33.0304C15.3964 33.0304 16.1249 32.8268 16.675 32.4196C17.2399 32.0124 17.5224 31.4234 17.5224 30.6526V30.4345H13.8652V27.904H20.7781Z" fill="#FFD600"/>
<path d="M28.776 24.5664C30.6343 24.5664 32.0764 25.0682 33.1022 26.0716C34.1428 27.0605 34.6631 28.4494 34.6631 30.2382C34.6631 32.0269 34.1428 33.4231 33.1022 34.4265C32.0764 35.4155 30.6343 35.9099 28.776 35.9099C26.9177 35.9099 25.4682 35.4155 24.4276 34.4265C23.4018 33.4231 22.8889 32.0269 22.8889 30.2382C22.8889 28.4494 23.4018 27.0605 24.4276 26.0716C25.4682 25.0682 26.9177 24.5664 28.776 24.5664ZM28.776 27.206C28.0624 27.206 27.5347 27.4459 27.1927 27.9258C26.8508 28.4058 26.6799 29.1765 26.6799 30.2382C26.6799 31.2998 26.8508 32.0706 27.1927 32.5505C27.5347 33.0304 28.0624 33.2704 28.776 33.2704C29.4896 33.2704 30.0174 33.0304 30.3593 32.5505C30.7012 32.0706 30.8722 31.2998 30.8722 30.2382C30.8722 29.1765 30.7012 28.4058 30.3593 27.9258C30.0174 27.4459 29.4896 27.206 28.776 27.206Z" fill="#FFD600"/>
<path d="M40.5851 31.9179C40.5851 32.4123 40.6594 32.7614 40.8081 32.965C40.9568 33.1686 41.2244 33.2704 41.6109 33.2704C41.9677 33.2704 42.3468 33.2049 42.7482 33.074L42.5029 35.3646C42.2353 35.5245 41.8859 35.6554 41.4548 35.7572C41.0237 35.859 40.6 35.9099 40.1837 35.9099C38.9944 35.9099 38.1321 35.6409 37.5969 35.1028C37.0617 34.5501 36.7942 33.6703 36.7942 32.4632V20.1599H40.5851V31.9179Z" fill="#FFD600"/>
<path d="M55.44 20.1599V35.6918H52.0281L51.8943 33.6194C51.5673 34.332 51.0841 34.8919 50.4449 35.2991C49.8205 35.7063 49.092 35.9099 48.2595 35.9099C46.8175 35.9099 45.6876 35.4155 44.8699 34.4265C44.0672 33.4376 43.6658 32.056 43.6658 30.2818C43.6658 28.4785 44.0746 27.0751 44.8922 26.0716C45.7099 25.0682 46.8398 24.5664 48.2818 24.5664C49.0697 24.5664 49.7461 24.7482 50.3111 25.1118C50.876 25.4754 51.322 25.9771 51.6491 26.617V20.1599H55.44ZM49.5752 33.1831C50.1847 33.1831 50.6679 32.9722 51.0247 32.5505C51.3963 32.1142 51.6045 31.4889 51.6491 30.6745V29.8019C51.6045 29.002 51.3963 28.3839 51.0247 27.9477C50.6679 27.5114 50.1847 27.2932 49.5752 27.2932C48.9062 27.2932 48.3859 27.5332 48.0142 28.0131C47.6574 28.493 47.479 29.2347 47.479 30.2382C47.479 31.2416 47.6574 31.9833 48.0142 32.4632C48.3859 32.9432 48.9062 33.1831 49.5752 33.1831Z" fill="#FFD600"/>
</svg>
