<?xml version="1.0" encoding="UTF-8"?>
<svg xmlns="http://www.w3.org/2000/svg" xmlns:xlink="http://www.w3.org/1999/xlink" width="40pt" height="40pt" viewBox="0 0 256 256" version="1.1">
<g id="surface1">
<path style=" stroke:none;fill-rule:nonzero;fill:rgb(99.215686%,0%,22.745098%);fill-opacity:1;" d="M 128 0 C 78.347656 0 38 40.351562 38 90 C 38 106.800781 42.652344 123.152344 51.5 137.25 L 121.898438 252.457031 C 123.101562 254.40625 124.898438 255.609375 127 255.90625 C 129.847656 256.359375 133 255.15625 134.652344 252.308594 L 205.25 136.050781 C 213.648438 122.25 218 106.199219 218 90 C 218 40.351562 177.652344 0 128 0 Z M 128 135 C 102.800781 135 83 114.601562 83 90 C 83 65.25 103.25 45 128 45 C 152.75 45 173 65.25 173 90 C 173 114.449219 153.5 135 128 135 Z M 128 135 "/>
<path style=" stroke:none;fill-rule:nonzero;fill:rgb(89.803922%,0%,15.294118%);fill-opacity:1;" d="M 128 0 L 128 45 C 152.75 45 173 65.25 173 90 C 173 114.449219 153.5 135 128 135 L 128 255.996094 C 130.558594 256.054688 133.191406 254.828125 134.648438 252.308594 L 205.25 136.050781 C 213.648438 122.25 218 106.199219 218 90 C 218 40.351562 177.652344 0 128 0 Z M 128 0 "/>
</g>
</svg>
